<svg viewBox="0 0 512 512" xmlns="http://www.w3.org/2000/svg">
    <symbol viewBox="0 0 512 512">
        <path d="M317 328c55 26 113 73 136 128-30 24-34 26-69 55-34-63-76-98-132-112-33 41-87 89-172 111-18-38-24-49-36-78 67-15 92-36 125-97-2-74 17-147 67-176 26 8 68 32 80 36-2 8 4 16 25 20 16 3 53 9 88-23 22 32 39 64 39 64s-68 65-149 45c-1 10-1 13-1 26zm10-182c-41 0-76-32-76-73 0-40 34-73 76-73 41 0 76 32 76 73 0 40-35 73-76 73z" fill="#ff0"/>
    </symbol>
    <symbol viewBox="0 0 512 512">
        <path d="M227 425c-60 0-165-72-150-88 15-20 70 50 170 52 90 0 135-45 147-26 15 25-100 70-166 62m173-31c-10-6 8-26 8-48-19-6-46 8-49-3-7-20 60-30 73-17 12 20-16 80-32 68m-213-48c-34-12-49-39-49-69 0-24 7-44 24-59 35-32 112-32 112-32 10-70-62-60-72-15l-56-8c0-100 192-110 192 0v104c0 17 20 41 20 41l-44 38-31-31s-30 45-96 31m60-47c10-5 15-10 20-20 10-20 7-40 7-56-20 0-45 0-60 20-10 15-10 30-4 44s21 18 35 13z"/>
    </symbol>
    <symbol viewBox="0 0 200 200">
        <path d="M168 88c28 0 7-24-6-31 0 0 17-40 15-41l-21 40c-10-4-21-6-32-8-13-26-27-40-37-38-11 2-17 10-18 29-17-18-26 7-24 22-20 1-35 14-35 14s24-9 36-9c1 12 4 22 9 33-21 31-29 74 22 52-7 19 10 20 30 10l24 29-20-32c10-7 17-15 24-25 58 4 70-18 33-44zm-53-41c-17 0-32 8-32 8 1-30 16-36 32-8zM70 61H56c-2-10 5-21 13-14-1 3 0 12 1 15zm-10 47c14 23 19 24 19 24-25 11-32 1-19-24zm34 31l7 13c-17 9-28 0-7-13zm12 9c-2-4-3-6-4-10 5-2 16-6 16-6s-12 1-15 1c12-8 39-42 39-42l-8-4c-14 17-28 31-47 42-25-27-28-42-31-62 0 0 9 1 13 1-2 6-3 19-3 19s2-11 6-16c4 18 16 54 16 54l7-5c-6-21-11-40-12-62 26-10 50-3 69 5-3 3-7 10-7 10s-8-9-15-12c5 5 9 10 12 14-18-6-55-13-55-13v8c21 4 40 11 60 21-8 27-19 45-39 57zm32-23c5-10 10-21 11-31 20 15 25 29-11 31zm24-40l-13-6s5-8 8-12c14 11 11 16 5 18z" fill="#0af"/>
    </symbol>
    <symbol viewBox="0 0 512 512">
        <path d="M415 0v93l-94 180 7 9h86v128H257l-14 9-44 84-9 9H97v-93l94-180-7-9H98V102h157l14-9 44-84 9-9z" fill="#fff"/>
    </symbol>
    <symbol viewBox="0 0 1024 1024">
        <path d="M244 144c-45 0-82 37-82 82v541c0 46 37 82 82 82h454l-21-74 185 169V226c0-45-37-82-82-82H244zm207 186l4 5c-72 21-105 52-105 52 100-52 226-54 322 0 0 0-32-30-100-51l6-6s55-1 112 42c0 0 58 104 58 233 0 0-34 58-122 61l-27-32c52-15 72-48 72-48-98 63-222 57-312 0 0 0 19 32 70 47l-27 33c-88-3-122-61-122-61 0-129 58-233 58-233 58-43 112-42 112-42zm-11 149c-23 0-41 20-41 44s18 44 41 44 41-20 41-44-18-44-41-44zm146 0c-23 0-41 20-41 44s18 44 41 44 41-20 41-44-18-44-41-44z" fill="#fff"/>
    </symbol>
    <symbol viewBox="0 0 512 512">
        <path d="M0 80v352h512V80H0zm55 32h403L305 265c-18 18-34 25-49 25s-31-7-49-25L55 112zm-23 23l121 121L32 377V135zm448 0v243L359 256l121-121zM176 279l9 9c22 21 46 34 71 34s49-13 71-35l9-8 121 121H55l121-121z" fill="#fff"/>
    </symbol>
    <symbol viewBox="0 0 32 32">
        <path d="M29 6V0h-5a7 7 0 0 0-7 7v4h-5v6h5v15h6V17h6v-6h-6V7a1 1 0 0 1 1-1z" fill="#fff"/>
    </symbol>
    <symbol>
        <circle cx="128" cy="256" r="112" fill="#06d"/>
        <circle cx="384" cy="256" r="112" fill="#f08"/>
    </symbol>
    <symbol viewBox="0 0 16 16">
        <path d="M0 0h8a8 8 0 0 0-8 8zm8 4C6 4 5 5 5 7v1c1-1 2-1 4-1h2c1 0 2 1 2 2v1c-4 0-9 0-8 6h6c-1 0-3 0-3-1 0-3 2-3 5-3v3c0 1-1 1-2 1h5V6c-2-2-3-2-4-2z" fill="#fff"/>
    </symbol>
    <symbol viewBox="4 64 368 368">
        <path d="M208 194c0-24 18-51 44-51 17 1 25 22 21 37-3 17-13 34-28 43-19 9-41-10-37-29zm-17 2c-9 22-44 16-48-6-7-19-4-43 7-60 17-18 45 0 45 21 3 15 3 31-4 45zm66 100c-16-7-20-29-11-44 7-14 21-28 38-29 16 0 27 19 22 34-4 22-25 44-49 39zM115 186c19 16 23 49 7 69-9 9-26 6-34-3-15-17-18-43-7-62 8-11 24-14 34-4zm92 70c20 15 29 40 35 64 3 12 5 25 1 38-8 13-30 12-41 1-13-11-30-20-48-19-15 0-32 4-46-2-10-5-13-20-8-30 5-14 15-25 25-36 13-14 32-24 52-24 10-1 21 1 30 8zm165 69c-14 41-48 73-86 95 165-175 2-365-140-324 87-46 194-2 226 82zM183 64C64 114-13 234 58 350c-28-14-48-54-54-79v-98c13-54 57-92 98-109zM4 301c59 119 303 133 332-9-6 66-51 126-111 140H102c-50-23-82-60-98-104z" fill="#fff"/>
    </symbol>
    <symbol viewBox="0 0 512 512">
        <path d="M256 52A205 205 0 0 0 51 257a205 205 0 0 0 139 194c10 1 13-4 13-9v-34c-56 12-68-27-68-27-9-23-22-29-22-29-18-12 1-12 1-12 20 1 31 20 31 20 18 31 47 22 59 16 1-13 7-22 12-27-45-5-92-22-92-100 0-22 7-40 20-54-2-5-9-25 1-53 0 0 17-5 55 20 16-4 33-6 50-6s34 2 50 6c38-26 55-20 55-20 11 28 4 48 2 53 13 14 20 32 20 54 0 78-47 95-92 100 7 6 13 18 13 37v55c0 5 3 11 15 12a205 205 0 0 0 148-196A205 205 0 0 0 256 52"/>
    </symbol>
    <symbol viewBox="0 0 512 512">
        <path d="M176 420c0-45 38-80 76-98 33-16 71-16 107-16-21-17-29-50-13-74-43 5-88-10-114-45-30-40-30-101 6-137 30-34 76-51 121-48h148c-12 8-24 19-37 26h-49c40 16 55 64 50 103-3 34-29 60-55 80-17 11-28 37-12 54 24 32 67 47 81 86 14 37 11 84-18 113-38 44-100 53-155 49-44-4-92-16-123-50-8-12-13-27-13-43zm57-17c-1 48 46 82 91 84 38 2 83 0 111-31 25-26 26-75-5-99-16-11-31-26-50-32-49-12-109 3-138 47-6 9-9 20-9 31zm34-286c6 41 31 84 72 97 26 8 55-5 66-30 22-43 9-100-24-134-22-26-66-37-92-11-21 20-26 51-22 78z" fill="#fff"/>
    </symbol>
    <symbol viewBox="64 64 384 384">
        <path d="M128 156a28 28 0 0 1 28-28h200a28 28 0 0 1 28 28v200a28 28 0 0 1-28 28H156a28 28 0 0 1-28-28zm186 2a8 8 0 0 0-8 8v32a8 8 0 0 0 8 8h32a8 8 0 0 0 8-8v-32a8 8 0 0 0-8-8zm20 78a80 80 0 1 1-156 0h-20v106a12 12 0 0 0 12 12h172a12 12 0 0 0 12-12V236zm-78-30a50 50 0 0 0 0 100 50 50 0 0 0 0-100" fill="#fff"/>
    </symbol>
    <symbol viewBox="64 64 384 384">
        <path d="M140 200a12 12 0 0 1 12-12h30l8 2c20-14 42-20 68-20 64 0 116 50 116 112v102a12 12 0 0 1-12 12h-38a12 12 0 0 1-12-12V282c0-30-24-52-54-52s-54 24-54 52v102a12 12 0 0 1-12 12h-40a12 12 0 0 1-12-12zm116-98c62 0 116 30 150 74a8 8 0 0 0 14-10c-36-50-96-82-162-82-30 0-58 6-84 18a8 8 0 0 0-4 12c2 4 8 6 22 0s40-12 66-12m118 94c-28-36-72-58-118-58-22 0-42 4-60 12a6 6 0 0 1-8-16c22-10 44-14 66-14 52 0 102 24 132 66a6 6 0 0 1-12 10" fill="#fff"/>
    </symbol>
    <symbol viewBox="0 0 512 512">
        <path d="M462 468l-34 34c-6 6-24 10-24 10-107 1-211-41-287-117C41 318-1 215 0 107c0 0 4-17 10-23l34-34c12-12 36-18 53-13l7 2c17 6 34 24 39 41l17 63c5 17-2 41-14 54l-23 23c22 82 87 147 169 169l23-23c12-12 37-19 54-14l63 17c17 5 35 22 41 39l2 7c6 17 0 41-13 53zM256 0v32c124 0 224 100 224 224h32C512 115 397 0 256 0zm0 96v32c71 0 128 57 128 128h32c0-88-72-160-160-160zm0 96v32c18 0 32 14 32 32h32c0-35-29-64-64-64z" fill="#fff"/>
    </symbol>
    <symbol viewBox="0 0 512 512">
        <path d="M172 287v46l-80 30s-11 2-10 7c0 20 58 6 58 6l32-12v39s-24 3-42 3C92 406 6 393 6 363c0-13 27-26 37-31zm124 113v46l166-59c16-9 43-15 43-36 0-23-57-43-118-45-54 5-54 5-91 15v47l91-30c24-9 47 0 47 6s-5 8-11 10zm-99 30l78 23V141c0-14 33-19 33 17v124c0 5 90 40 90-66 0-97-90-117-90-117L197 68z" fill="#fff"/>
    </symbol>
    <symbol viewBox="0 0 512 512">
        <path d="M483 292c16-92-31-190-113-235-45-26-99-36-150-28C163-8 79 7 38 62 2 106-1 172 29 220c-16 92 31 190 113 235 45 26 99 36 150 28 57 37 138 23 180-30 38-44 42-112 11-161zm-118 69c-31 42-88 48-136 43-44-3-90-33-96-79-6-35 49-43 57-10 8 23 26 44 51 45 27 3 64-2 74-32 7-23-15-41-36-45-42-13-92-15-124-48-30-32-18-89 20-109 39-22 87-23 130-12 30 9 64 34 61 70-5 28-47 31-56 4-10-24-33-39-59-37-23-2-59 12-52 40 13 25 47 25 71 33 38 10 84 18 103 57 11 26 8 58-8 80z" fill="#fff"/>
    </symbol>
    <symbol viewBox="0 0 512 512">
        <path d="M19 208a45 45 0 0 0 90 0 45 45 0 0 0-90 0h10a35 35 0 0 1 70 0 35 35 0 0 1-70 0zm256 112a45 45 0 0 0 90 0 45 45 0 0 0-90 0h10a35 35 0 0 1 70 0 35 35 0 0 1-70 0zm97-112a60 60 0 0 0 120 0 60 60 0 0 0-120 0h20a40 40 0 0 1 80 0 40 40 0 0 1-80 0zm30 0a30 30 0 0 0 60 0 30 30 0 0 0-60 0m-30 0a60 60 0 0 0 60 60l-67 52a45 45 0 0 0-45-45M74 185a25 25 0 1 0-20 46l256 112a25 25 0 1 0 20-46z" fill="#fff"/>
    </symbol>
    <symbol>
        <circle cx="256" cy="256" r="224"/>
        <circle cx="256" cy="256" r="192" fill="#eff"/>
        <circle cx="256" cy="256" r="128" fill="#f40"/>
    </symbol>
    <symbol viewBox="0 0 512 512">
        <path d="M464 92c12-48-12-52-60-36L68 176c-44 24-24 60 28 76 144 68 104 32 168 160 12 32 44 88 76 48z" fill="#fff"/>
    </symbol>
    <symbol viewBox="0 0 512 512">
        <path d="M274 445c-35-3-72-14-95-44-18-22-22-52-21-79v-79h-41v-81c36-10 64-42 69-78 2-11 10-18 19-20h109v89h66v90h-66v87c0 12 12 12 36 13h18l27 68c-7 17-27 23-43 29-25 8-52 7-78 5zm62-19c15-3 31-7 42-18l-16-49c-18 4-40 10-55-4-14-15-7-37-9-56v-71h67v-59h-67V80h-54c-2 39-27 85-70 95v53h41v124c4 34 30 63 63 71 18 6 38 5 56 3z" fill="#fff"/>
    </symbol>
    <symbol viewBox="0 0 512 512">
        <path d="M434 238c26-2 43-14 50-30-9 6-38 12-54 6-1-4-2-7-3-11-12-45-54-81-98-76 4-1 7-3 11-4 5-1 33-6 28-16-3-8-38 6-44 8 8-3 22-8 24-18-13 1-26 8-36 17 3-3 6-8 6-13-35 22-55 67-72 111-13-12-24-22-34-28-29-15-63-31-118-52-1 18 8 41 39 57-6 0-18 1-28 3 3 20 16 37 51 45-15 1-24 4-31 12 7 14 24 31 56 27-35 15-14 43 14 39-49 50-126 46-170 4 116 158 368 93 405-58 28 0 44-9 54-20-16 2-39 0-52-5z" fill="#fff"/>
    </symbol>
    <symbol viewBox="0 0 350 350">
        <path d="M115 274H49V87l17-44h238v163l-69 68h-51l-35 36h-34zm125-39l40-39V67H88v168h54v35l36-35zm-86-123h21v69h-21zm63 0h21v69h-21z" fill="#fff"/>
    </symbol>
    <symbol viewBox="0 0 100 100">
        <path d="M6 19v29h36V14zm0 62V52h36v34zm40-68v35h48V6zm0 74V52h48v42z" fill="#fff"/>
    </symbol>
    <symbol viewBox="0 0 1024 1024">
        <path d="M512 320c-89-63-134-60-170-55 100-68 240-68 340 0-36-8-81-5-170 55m0 124c187 163 233 245 215 279-100 115-330 115-430 0-18-34 28-116 215-279m71-62c106-89 125-86 139-84 114 91 143 270 35 398 0-119-120-268-174-314m-142 0c-106-89-125-86-139-84-114 91-143 270-35 398 0-119 120-268 174-314" fill="#fff"/>
    </symbol>
    <symbol viewBox="0 0 512 512">
        <path d="M276 289l2 82 65 2-1 20-201 1 3-19 59-8 2-78L87 146H26v-28h205v28h-62l84 113 83-75h-49l-7-28h180l-19 28h-43zm180 76l-34-3v30l29 2zm30-146l-60-6 1 128 28 2z" fill="#fff"/>
    </symbol>
    <symbol>
        <g fill="#fff">
            <ellipse cx="256" cy="128" rx="32" ry="64" transform="rotate(-45 256 320)"/>
            <ellipse cx="256" cy="128" rx="32" ry="64" transform="rotate(-15 256 320)"/>
            <ellipse cx="256" cy="128" rx="32" ry="64" transform="rotate(15 256 320)"/>
            <ellipse cx="256" cy="128" rx="32" ry="64" transform="rotate(45 256 320)"/>
            <circle cx="256" cy="320" r="96"/>
        </g>
    </symbol>
    <symbol>
        <path d="M256 256l-128-96v64H0v64h128v64zm0 192V64h256v384h-32l-160 32V128l160-32H288v352z" fill="#fff"/>
    </symbol>
    <symbol>
        <path d="M324.403 7.241l59.128 24.492L359.04 90.86a192 192 0 0 1 86.592 209.05l59.128 24.492-24.492 59.128-59.128-24.492a192 192 0 0 1-209.05 86.592l-24.492 59.128-59.128-24.492 24.492-59.128a192 192 0 0 1-86.592-209.05L7.241 187.597l24.492-59.128L90.86 152.96a192 192 0 0 1 209.05-86.592zm-19.42 130.502a128 128 0 0 0-97.966 236.514 128 128 0 0 0 97.966-236.514" fill="#fff"/>
        <path d="M128.469 31.733L187.597 7.24l24.492 59.128a192 192 0 0 1 209.05 86.592l59.128-24.492 24.492 59.128-59.128 24.492a192 192 0 0 1-86.592 209.05l24.492 59.128-59.128 24.492-24.492-59.128a192 192 0 0 1-209.05-86.592L31.733 383.53 7.24 324.403l59.128-24.492a192 192 0 0 1 86.592-209.05zm78.548 106.01a128 128 0 0 0 97.966 236.514 128 128 0 0 0-97.966-236.514" fill="#fff"/>
        <circle cx="256" cy="256" r="64" fill="#fff"/>
    </symbol>
</svg>
